<svg width="64" height="64" viewBox="0 0 64 64" fill="none" xmlns="http://www.w3.org/2000/svg">
<path d="M43.1349 0C43.1349 0 48.7889 13.832 24.5571 23.1229C11.39 28.1699 1.27699 41.1059 13.352 61.0887C14.352 52.1567 18.6399 32.4628 37.0779 27.9688C37.0779 27.9688 19.9169 34.3858 18.401 63.4327C27.219 64.6707 47.8998 65.5026 54.0399 47.5557C62.1479 23.8439 43.1349 0 43.1349 0Z" fill="#3A7F0D"/>
<path d="M18.409 63.3118C37.1289 55.8408 50.7499 38.3389 52.6298 17.446C48.8028 7.12293 43.1349 0 43.1349 0C43.1349 0 48.7889 13.832 24.5571 23.1229C11.39 28.1699 1.27699 41.1059 13.352 61.0887C14.352 52.1567 18.6399 32.4628 37.0779 27.9688C37.0769 27.9689 19.967 34.3699 18.409 63.3118Z" fill="#49A010"/>
<path d="M11.484 23.584C12.4505 23.584 13.234 22.8005 13.234 21.8339C13.234 20.8674 12.4505 20.0839 11.484 20.0839C10.5175 20.0839 9.73395 20.8674 9.73395 21.8339C9.73395 22.8005 10.5175 23.584 11.484 23.584Z" fill="#3A7F0D"/>
<path d="M16.984 21.3339C17.6743 21.3339 18.234 20.7743 18.234 20.0839C18.234 19.3936 17.6743 18.834 16.984 18.834C16.2936 18.834 15.734 19.3936 15.734 20.0839C15.734 20.7743 16.2936 21.3339 16.984 21.3339Z" fill="#49A010"/>
<path d="M15.8591 11.334C17.5849 11.334 18.984 9.93487 18.984 8.20902C18.984 6.48316 17.5849 5.08408 15.8591 5.08408C14.1332 5.08408 12.7341 6.48316 12.7341 8.20902C12.7341 9.93487 14.1332 11.334 15.8591 11.334Z" fill="#49A010"/>
<path d="M25.484 16.334C26.0363 16.334 26.484 15.8863 26.484 15.334C26.484 14.7817 26.0363 14.334 25.484 14.334C24.9317 14.334 24.484 14.7817 24.484 15.334C24.484 15.8863 24.9317 16.334 25.484 16.334Z" fill="#49A010"/>
<path d="M33.86 12.5839C35.4478 12.5839 36.7349 11.2968 36.7349 9.70895C36.7349 8.12115 35.4478 6.83398 33.86 6.83398C32.2722 6.83398 30.985 8.12115 30.985 9.70895C30.985 11.2968 32.2722 12.5839 33.86 12.5839Z" fill="#49A010"/>
</svg>
