<svg width="774" height="856" viewBox="0 0 774 856" fill="none" xmlns="http://www.w3.org/2000/svg">
<path fill-rule="evenodd" clip-rule="evenodd" d="M435.647 46.193C523.154 23.4871 623.663 -32.9653 697.488 26.128C771.164 85.1024 771.651 213.109 773.951 316.988C775.787 399.924 726.033 467.207 709.038 547.788C689.919 638.441 727.647 753.625 668.526 816.851C609.776 879.681 515.016 850.533 435.647 840.166C364.604 830.886 302.463 796.399 237.955 760.611C156.741 715.554 46.118 701.13 11.305 604.744C-23.4427 508.539 28.8267 398.164 74.6307 308.418C113.577 232.108 182.186 190.073 246.949 143.033C306.714 99.6223 366.851 64.0442 435.647 46.193Z" fill="#F8F9FA"/>
</svg>
